<svg width="60" height="60" viewBox="0 0 60 60" fill="none" xmlns="http://www.w3.org/2000/svg">
<g clip-path="url(#clip0_502_7157)">
<path d="M40.5906 40.9053H37.4034C35.5643 40.8801 33.8102 40.1266 32.5258 38.8101C31.2415 37.4935 30.5316 35.7213 30.552 33.8821V30.5995C30.547 30.2361 30.6136 29.8753 30.748 29.5376C30.8824 29.1999 31.082 28.892 31.3355 28.6315C31.5889 28.371 31.8912 28.163 32.225 28.0193C32.5588 27.8756 32.9177 27.7991 33.2811 27.7941H48.3199V23.8817H21.6013C19.1775 29.3399 16.6965 35.0081 15.8759 37.241C15.3658 38.5335 14.4808 39.6439 13.3347 40.4295C12.1886 41.2151 10.8338 41.64 9.44434 41.6496V43.997C11.5705 46.0661 14.4168 47.2293 17.3836 47.2414H41.3921C43.2279 47.2364 44.9871 46.5049 46.2852 45.2067C47.5833 43.9086 48.3148 42.1495 48.3199 40.3136V39.8174C47.2437 40.5272 45.9829 40.9055 44.6938 40.9053H40.5906ZM24.5022 35.5616C24.0309 35.5613 23.5705 35.4204 23.1798 35.1568C22.7892 34.8932 22.4861 34.519 22.3095 34.0822C22.1328 33.6453 22.0906 33.1656 22.1883 32.7046C22.286 32.2436 22.519 31.8222 22.8577 31.4945C23.1963 31.1668 23.6251 30.9476 24.0891 30.8651C24.553 30.7826 25.0311 30.8405 25.4619 31.0314C25.8928 31.2222 26.2569 31.5374 26.5075 31.9365C26.7581 32.3356 26.8839 32.8004 26.8687 33.2714C26.8488 33.8857 26.5908 34.4682 26.1491 34.8956C25.7074 35.3231 25.1168 35.5619 24.5022 35.5616Z" fill="#AABFF2"/>
<path d="M24.5022 30.8281C23.8746 30.8281 23.2727 31.0775 22.8289 31.5213C22.3851 31.9651 22.1357 32.567 22.1357 33.1946C22.1357 33.8223 22.3851 34.4242 22.8289 34.868C23.2727 35.3118 23.8746 35.5611 24.5022 35.5611C25.1299 35.5611 25.7318 35.3118 26.1756 34.868C26.6194 34.4242 26.8687 33.8223 26.8687 33.1946C26.8687 32.567 26.6194 31.9651 26.1756 31.5213C25.7318 31.0775 25.1299 30.8281 24.5022 30.8281Z" fill="black"/>
<path d="M48.7969 27.7939H33.2811C32.9176 27.7989 32.5588 27.8754 32.2249 28.0191C31.8911 28.1628 31.5888 28.3709 31.3354 28.6314C31.082 28.8919 30.8823 29.1998 30.7479 29.5375C30.6135 29.8751 30.5469 30.236 30.5519 30.5994V33.882C30.5316 35.7211 31.2414 37.4933 32.5258 38.8099C33.8101 40.1265 35.5642 40.88 37.4033 40.9051H44.6937C45.9828 40.9053 47.2437 40.5271 48.3198 39.8173C48.3874 39.7863 48.4514 39.7479 48.5106 39.7028C49.4379 39.0611 50.1975 38.2062 50.7255 37.2098C51.2536 36.2135 51.5346 35.105 51.5451 33.9774V30.5994C51.5502 29.8637 51.2641 29.1558 50.7493 28.6302C50.2344 28.1046 49.5326 27.804 48.7969 27.7939ZM42.0028 37.8516H38.9301C38.766 37.8727 38.5993 37.8586 38.4411 37.8103C38.2829 37.7619 38.1368 37.6804 38.0126 37.5712C37.8883 37.4619 37.7888 37.3274 37.7206 37.1767C37.6525 37.0259 37.6172 36.8624 37.6172 36.697C37.6172 36.5315 37.6525 36.368 37.7206 36.2172C37.7888 36.0665 37.8883 35.932 38.0126 35.8228C38.1368 35.7135 38.2829 35.632 38.4411 35.5836C38.5993 35.5353 38.766 35.5212 38.9301 35.5423H42.0028C42.1668 35.5212 42.3336 35.5353 42.4918 35.5836C42.65 35.632 42.7961 35.7135 42.9203 35.8228C43.0445 35.932 43.1441 36.0665 43.2122 36.2172C43.2804 36.368 43.3157 36.5315 43.3157 36.697C43.3157 36.8624 43.2804 37.0259 43.2122 37.1767C43.1441 37.3274 43.0445 37.4619 42.9203 37.5712C42.7961 37.6804 42.65 37.7619 42.4918 37.8103C42.3336 37.8586 42.1668 37.8727 42.0028 37.8516ZM47.4419 37.8516H46.2014C46.0373 37.8727 45.8706 37.8586 45.7124 37.8103C45.5542 37.7619 45.4081 37.6804 45.2838 37.5712C45.1596 37.4619 45.0601 37.3274 44.9919 37.1767C44.9237 37.0259 44.8885 36.8624 44.8885 36.697C44.8885 36.5315 44.9237 36.368 44.9919 36.2172C45.0601 36.0665 45.1596 35.932 45.2838 35.8228C45.4081 35.7135 45.5542 35.632 45.7124 35.5836C45.8706 35.5353 46.0373 35.5212 46.2014 35.5423H47.3656C47.6462 35.5785 47.9041 35.7157 48.091 35.9282C48.2779 36.1407 48.381 36.414 48.381 36.697C48.381 36.98 48.2779 37.2533 48.091 37.4658C47.9041 37.6783 47.6462 37.8154 47.3656 37.8516H47.4419Z" fill="#CBDAF7"/>
<path d="M42.0025 35.5426H38.9299C38.7658 35.5215 38.5991 35.5356 38.4409 35.5839C38.2826 35.6323 38.1365 35.7138 38.0123 35.823C37.8881 35.9323 37.7886 36.0668 37.7204 36.2175C37.6522 36.3683 37.6169 36.5318 37.6169 36.6972C37.6169 36.8627 37.6522 37.0262 37.7204 37.177C37.7886 37.3277 37.8881 37.4622 38.0123 37.5715C38.1365 37.6807 38.2826 37.7622 38.4409 37.8106C38.5991 37.8589 38.7658 37.873 38.9299 37.8519H42.0025C42.1666 37.873 42.3333 37.8589 42.4915 37.8106C42.6497 37.7622 42.7958 37.6807 42.9201 37.5715C43.0443 37.4622 43.1438 37.3277 43.212 37.177C43.2802 37.0262 43.3154 36.8627 43.3154 36.6972C43.3154 36.5318 43.2802 36.3683 43.212 36.2175C43.1438 36.0668 43.0443 35.9323 42.9201 35.823C42.7958 35.7138 42.6497 35.6323 42.4915 35.5839C42.3333 35.5356 42.1666 35.5215 42.0025 35.5426ZM47.3653 35.5426H46.2011C46.0371 35.5215 45.8703 35.5356 45.7121 35.5839C45.5539 35.6323 45.4078 35.7138 45.2836 35.823C45.1594 35.9323 45.0598 36.0668 44.9917 36.2175C44.9235 36.3683 44.8882 36.5318 44.8882 36.6972C44.8882 36.8627 44.9235 37.0262 44.9917 37.177C45.0598 37.3277 45.1594 37.4622 45.2836 37.5715C45.4078 37.6807 45.5539 37.7622 45.7121 37.8106C45.8703 37.8589 46.0371 37.873 46.2011 37.8519H47.3653C47.646 37.8157 47.9039 37.6786 48.0908 37.4661C48.2776 37.2535 48.3807 36.9802 48.3807 36.6972C48.3807 36.4143 48.2776 36.141 48.0908 35.9284C47.9039 35.7159 47.646 35.5788 47.3653 35.5426Z" fill="#AABFF2"/>
<path d="M4.27186 39.703C3.98205 39.5692 3.70151 39.4162 3.43213 39.245V50.276L6.39026 52.3562L9.34839 50.276V41.5924C7.47436 41.65 5.65222 40.9718 4.27186 39.703Z" fill="#EF8843"/>
<path d="M13.9298 35.9623C13.567 36.8635 13.0245 37.6814 12.3354 38.3663C11.6463 39.0511 10.825 39.5884 9.92146 39.9455C9.01795 40.3026 8.05119 40.4721 7.08009 40.4435C6.10899 40.4149 5.15388 40.1889 4.27295 39.7792C5.65032 41.0549 7.4728 41.7401 9.34948 41.6877C10.7389 41.6781 12.0938 41.2532 13.2399 40.4676C14.386 39.682 15.2709 38.5716 15.781 37.2791C16.6398 35.1034 19.1209 29.4353 21.5064 23.9198H19.1018C19.1018 23.9198 15.781 31.2483 13.9298 35.9623Z" fill="#D0D9EA"/>
<path d="M27.6132 10.3699L29.2354 10.5035L27.6132 10.3699ZM21.6206 10.5798C22.8051 10.4405 23.9968 10.3704 25.1895 10.3699C23.9968 10.3704 22.8051 10.4405 21.6206 10.5798ZM41.6787 18.5763C43.9769 18.6256 46.2678 18.8553 48.5301 19.2633C47.0224 17.4885 41.2397 11.6295 29.2354 10.5798C37.919 12.66 41.1252 17.603 41.6787 18.5763ZM13.9295 35.9625C15.7807 31.2485 19.1014 23.8819 19.1014 23.8819C19.1014 23.8819 24.9795 19.4351 37.0602 18.6717C32.8615 12.9463 25.9338 11.0378 21.6397 10.5798C6.90632 12.1638 0.0167358 23.3475 0.0167358 32.2791C-0.0724653 33.6375 0.196029 34.9956 0.795442 36.2179C1.39486 37.4401 2.30424 38.4839 3.4329 39.245C4.31641 39.8074 5.31205 40.1701 6.35026 40.3078C7.38847 40.4455 8.44423 40.3549 9.4438 40.0423C10.4434 39.7297 11.3626 39.2027 12.1374 38.498C12.9122 37.7933 13.5238 36.928 13.9295 35.9625ZM1.48626 30.5424C1.55559 29.1182 2.17949 27.7777 3.2245 26.8076C4.26951 25.8375 5.65266 25.3148 7.07808 25.3514C8.47156 25.6583 9.68862 26.5006 10.4669 27.6965C11.2451 28.8925 11.5223 30.3464 11.2385 31.7448C11.179 33.1555 10.5714 34.4873 9.54484 35.4568C8.51831 36.4263 7.15397 36.9569 5.74215 36.9358C5.04224 36.7968 4.37667 36.5209 3.78364 36.124C3.1906 35.7271 2.68178 35.217 2.28636 34.623C1.89095 34.029 1.61672 33.3627 1.47942 32.6625C1.34211 31.9622 1.34444 31.2418 1.48626 30.5424Z" fill="#EBEFF7"/>
<path d="M37.0222 18.6716C37.9001 18.6716 38.7971 18.6716 39.7322 18.5571H41.6407C41.0873 17.5838 37.8238 12.6408 29.1975 10.5606L27.6134 10.3698H25.1897C23.997 10.3703 22.8054 10.4404 21.6208 10.5797C25.8958 11.095 32.8236 12.8508 37.0222 18.6716Z" fill="#FC964B"/>
<path d="M39.732 18.5568C38.7969 18.5568 37.8236 18.5568 37.022 18.6713C24.9414 19.4347 19.1015 23.8814 19.1015 23.8814H60C56.6153 21.4338 52.6848 19.8485 48.5492 19.2629C46.2869 18.8548 43.996 18.6251 41.6978 18.5758L39.732 18.5568ZM5.74218 36.9353C7.15401 36.9565 8.51835 36.4258 9.54488 35.4563C10.5714 34.4868 11.1791 33.155 11.2386 31.7443C11.5223 30.3459 11.2452 28.892 10.4669 27.6961C9.68865 26.5001 8.47159 25.6579 7.07811 25.3509C5.65269 25.3143 4.26954 25.837 3.22453 26.8071C2.17952 27.7772 1.55562 29.1178 1.48629 30.542C1.34447 31.2413 1.34215 31.9618 1.47945 32.662C1.61675 33.3623 1.89098 34.0285 2.2864 34.6226C2.68182 35.2166 3.19064 35.7267 3.78367 36.1235C4.37671 36.5204 5.04227 36.7963 5.74218 36.9353ZM2.38328 30.7519C2.40525 30.2738 2.52164 29.8049 2.72573 29.372C2.92982 28.9392 3.21757 28.551 3.5724 28.2299C3.92722 27.9087 4.3421 27.661 4.79311 27.501C5.24413 27.341 5.72235 27.2719 6.20022 27.2976C7.10905 27.5245 7.89481 28.0943 8.39288 28.8876C8.89095 29.681 9.06267 30.6363 8.87208 31.5534C8.82746 32.5001 8.41204 33.3912 7.71563 34.0341C7.01922 34.6769 6.09779 35.0198 5.15056 34.9887C4.22557 34.787 3.41698 34.2296 2.89927 33.437C2.38156 32.6444 2.19623 31.68 2.38328 30.7519Z" fill="#647096"/>
<path d="M5.1509 34.9891C6.09813 35.0203 7.01956 34.6774 7.71597 34.0345C8.41237 33.3917 8.82779 32.5006 8.87241 31.5539C9.05991 30.6235 8.87512 29.6566 8.35774 28.8609C7.84035 28.0652 7.03161 27.5041 6.10513 27.298C5.15609 27.272 4.23469 27.6192 3.53884 28.2651C2.843 28.9109 2.42823 29.804 2.38361 30.7523C2.19657 31.6804 2.38189 32.6448 2.89961 33.4374C3.41732 34.2301 4.22591 34.7874 5.1509 34.9891Z" fill="#FC964B"/>
</g>
<defs>
<clipPath id="clip0_502_7157">
<rect width="60" height="60" fill="white"/>
</clipPath>
</defs>
</svg>
