<svg xmlns="http://www.w3.org/2000/svg" width="257" height="48" fill="none">
  <path fill="#fff" d="M23.8 48q-4.9 0-9.2-1.9A25 25 0 0 1 1.9 33.3Q-.1 29 0 24A23.5 23.5 0 0 1 14.8 1.9q4.4-2 9.5-1.9a25 25 0 0 1 16.6 6.2q3.3 3 5.2 6.8 2 4 1.9 8.6 0 7-4.3 10.7a15 15 0 0 1-10.3 3.6H30q-.7 0-1.2.6t-.5 1.1.6 1.6q.7.8.7 2.4 0 2-1.8 4.3-2 2.1-4 2.1m-13-21.8q1.3 0 2.4-1t1-2.5-1-2.5-2.5-1-2.4 1-1 2.5q0 1.5 1 2.5t2.4 1m7-9.6q1.5 0 2.5-1 1-1.2 1-2.5 0-1.5-1-2.5-1.1-1-2.5-1t-2.4 1-1 2.5 1 2.4 2.4 1m12 0q1.4 0 2.4-1 1-1.2 1-2.5 0-1.5-1-2.5t-2.4-1-2.4 1-1 2.5 1 2.4q.9 1 2.4 1M37 26q1.5 0 2.5-1t1-2.5-1-2.5-2.5-1q-1.4 0-2.4 1t-1 2.5 1 2.5 2.4 1m50.5 9V12h6.4v8.8h.1q.7-1.3 2.2-2.2 1.5-.7 3.2-.7 2.5 0 4.2 1.6a6 6 0 0 1 1.6 4.3V35h-6.6v-9.5q0-1.2-.6-1.8a2 2 0 0 0-1.6-.6q-1 0-1.7.7-.6.8-.6 2V35zm91 0V12h6.6v23zm10.1 0V18.4h6.6V35zm3.3-18.5a3.4 3.4 0 0 1-3.5-3.5q0-1.5 1-2.5t2.5-1a3.4 3.4 0 0 1 3.6 3.5q0 1.5-1 2.5t-2.6 1m56.2 19.1q-2.7 0-4.6-.8-2-.7-3.8-2.5l3.4-3.3q1.2 1 2.4 1.6 1.2.4 2.8.4.9 0 1.3-.2t.5-.7-.5-.7l-3-.8q-3-.8-4.6-2-1.5-1.4-1.4-3.3 0-2.5 2-4 2.2-1.5 5.5-1.5 2.2 0 4 .7 2 .5 3.7 2l-3.3 3.3q-1-.8-2.1-1.1-1-.4-2.3-.4-.8 0-1.2.2t-.4.6.5.6l3 .8q3 .8 4.6 2 1.5 1.3 1.5 3.4 0 2.5-2.2 4a10 10 0 0 1-5.8 1.7M79.2 35h-6.7V18.3h-6v-6.2h18.7v6.2h-6z"/>
  <path fill="#fff" fill-rule="evenodd" d="M228 42.4q-3 0-5-1.2-2.1-1-3.6-3.5l4.6-2.2q.7 1.1 1.6 1.7a4 4 0 0 0 2.2.5q1.7 0 2.6-1t.9-2.8v-1h-.1q-.9.9-2.2 1.4a7 7 0 0 1-2.7.6 7 7 0 0 1-5.5-2.3 9 9 0 0 1-2-6.1q0-3.8 2.1-6.2a7 7 0 0 1 5.7-2.4q1.5 0 2.7.5t2 1.5v-1.5h6.3v14q0 5-2.4 7.5-2.4 2.4-7.1 2.5m2.4-13.7q-.9 1-2.2 1a3 3 0 0 1-2.2-1q-.9-.8-.9-2.3t.9-2.4 2.2-.9 2.2 1q.8.8.8 2.3t-.8 2.3m-114 6.9q-4.2 0-6.6-2.5a9 9 0 0 1-2.5-6.3q0-3.9 2.5-6.4a9 9 0 0 1 6.6-2.5q3.7 0 6.1 2.3a8 8 0 0 1 2.5 7.1l-.2 1h-11.1q.2.8.7 1.5 1 1.2 2.8 1.2 1 0 2-.5a6 6 0 0 0 1.9-1.4l3.4 3q-1.6 1.8-3.5 2.6-2 .9-4.6.9m1.9-12.2q.8.6.9 1.7h-5.6q.2-.9.7-1.4.8-1 2.1-1 1.2 0 1.9.7" clip-rule="evenodd"/>
  <path fill="#fff" d="M127.6 35V18.4h6.3v2.4q.7-1.4 2.2-2.1 1.4-.9 3.2-.9 1.7 0 3 .8t2 2.1q1-1.5 2.5-2.2 1.5-.6 3.1-.7 3 0 4.6 1.8 1.6 1.7 1.6 4.7V35h-6.6v-9.3q0-1.3-.5-2t-1.6-.6a2 2 0 0 0-1.6.8 3 3 0 0 0-.7 2V35h-6.6v-9.3q0-1.3-.5-2t-1.6-.6a2 2 0 0 0-1.6.8 3 3 0 0 0-.7 2V35z"/>
  <path fill="#fff" fill-rule="evenodd" d="M167.4 35.6q-4.2 0-6.6-2.5a9 9 0 0 1-2.5-6.3q0-3.9 2.6-6.4a9 9 0 0 1 6.6-2.5q3.6 0 6 2.3a8 8 0 0 1 2.5 6.3l-.1 1.7h-11.2q.3 1 .8 1.6.9 1.2 2.7 1.2 1.2 0 2.1-.5a6 6 0 0 0 1.8-1.4l3.4 3q-1.5 1.8-3.5 2.6t-4.6.9m2-12.2q.6.6.8 1.7h-5.6l.7-1.4q.9-1 2.2-1 1 0 1.8.7" clip-rule="evenodd"/>
  <path fill="#fff" d="M198.8 35V18.4h6.3v2.4h.1q.9-1.5 2.4-2.2t3-.8q2.7 0 4.3 1.7a6 6 0 0 1 1.6 4.4V35h-6.6v-9.5q0-1-.6-1.7t-1.6-.7-1.7.7q-.6.8-.6 2V35z"/>
</svg>